Coordinates
nRows=7
nColumns=38

# SIMM Motion File Header:
name Coordinates
datacolumns 38
datarows 7
otherdata 1
range 1.34750000000000010000 1.35350000000000010000

Units are S.I. units (second, meters, Newtons, ...)
Angles are in degrees.

endheader
time	pelvis_tilt	pelvis_list	pelvis_rotation	pelvis_tx	pelvis_ty	pelvis_tz	hip_flexion_r	hip_adduction_r	hip_rotation_r	knee_angle_r	ankle_angle_r	subtalar_angle_r	mtp_angle_r	hip_flexion_l	hip_adduction_l	hip_rotation_l	knee_angle_l	ankle_angle_l	subtalar_angle_l	mtp_angle_l	lumbar_extension	lumbar_bending	lumbar_rotation	arm_flex_r	arm_add_r	arm_rot_r	elbow_flex_r	pro_sup_r	wrist_flex_r	wrist_dev_r	arm_flex_l	arm_add_l	arm_rot_l	elbow_flex_l	pro_sup_l	wrist_flex_l	wrist_dev_l
      1.34750000000000010000	     -4.10978886919392840000	     -1.90303329990639280000	     -0.30350470162203991000	      0.93161420959610397000	      1.00801777175511530000	     -0.30560158590444841000	      1.30014138092682630000	      9.50948036283163490000	      9.67065752712292870000	    -28.80025435735439000000	     20.66882865734341100000	     -0.00000000000001888417	     -0.00000000000002772325	     37.90331686947000400000	      2.51159587996551890000	      3.79560998836427240000	    -91.11899924313127000000	      3.17709276346621520000	      0.00000000000000376109	     -0.00000000000001079451	     -6.00073121651363460000	      6.07917287184399860000	     15.17342418659326600000	    -13.88717087363388600000	    -16.99809085201001200000	     -3.14842782451225120000	    118.77963474518481000000	     89.59165795857748500000	      0.00000000000000260048	     -0.00000000000001250805	    -33.19847112140563900000	    -22.76452795010749200000	     -1.99840646025887580000	    122.77593159477831000000	     93.68669478363519000000	      0.00000000000001027106	     -0.00000000000000518487
      1.34850000000000000000	     -4.15407647236514600000	     -1.82697659010608530000	     -0.30258625991640653000	      0.93179694673598512000	      1.00867285122537350000	     -0.30568318704643394000	      1.01102684221317450000	      9.38135813118581120000	      9.69515689158480140000	    -28.50245148740544500000	     20.28347674975923800000	     -0.00000000000001902753	     -0.00000000000002801916	     38.02603455704646500000	      2.60743718067814000000	      3.79514952274051210000	    -90.73630104505136300000	      3.20996560311787560000	      0.00000000000000390084	     -0.00000000000001087289	     -5.91571075752261330000	      5.99354175863168950000	     15.25565640447279000000	    -13.87321172949824300000	    -16.98269690884868800000	     -3.04410818078910950000	    119.01160683018226000000	     89.68151361666997400000	      0.00000000000000262610	     -0.00000000000001266507	    -33.34979962344080900000	    -22.71737767943560700000	     -2.03144128481764510000	    122.89793404378598000000	     93.55368362564971100000	      0.00000000000001040456	     -0.00000000000000524148
      1.34950000000000010000	     -4.19772258519832420000	     -1.75051677561963630000	     -0.30000854030027974000	      0.93198436171518939000	      1.00933397591743050000	     -0.30576928227885875000	      0.72228328617596316000	      9.25184032263655350000	      9.71524084377427850000	    -28.20418091049850100000	     19.88766590817831000000	     -0.00000000000001915203	     -0.00000000000002829506	     38.14448704267537900000	      2.70452607832960010000	      3.79590951788276600000	    -90.34765485085567600000	      3.24349173453562800000	      0.00000000000000405181	     -0.00000000000001093983	     -5.83073052498772610000	      5.90772890066630560000	     15.33435165218859100000	    -13.85936199997576600000	    -16.96782801342334300000	     -2.93673497761030730000	    119.24172265683394000000	     89.77101947028575100000	      0.00000000000000265199	     -0.00000000000001281684	    -33.50217595917799000000	    -22.66773869638005200000	     -2.06597043239120070000	    123.01888604115624000000	     93.42317341092530100000	      0.00000000000001053498	     -0.00000000000000529778
      1.35050000000000000000	     -4.24068674384220130000	     -1.67366367063152110000	     -0.29570534526127079000	      0.93217627570829009000	      1.01000096284363620000	     -0.30585987263579345000	      0.43391324913917445000	      9.12098115412138810000	      9.73078182157692420000	    -27.90546377950691300000	     19.48150578890085400000	     -0.00000000000001928839	     -0.00000000000002858503	     38.25865821317452000000	      2.80288796448458920000	      3.79798063730447130000	    -89.95309872082506800000	      3.27753458054073740000	      0.00000000000000420112	     -0.00000000000001098833	     -5.74588007529321310000	      5.82172818461161780000	     15.40945406427286300000	    -13.84561409836099200000	    -16.95342685777846000000	     -2.82638668658132810000	    119.47000173645802000000	     89.86010212813573600000	      0.00000000000000267790	     -0.00000000000001296318	    -33.65554620322839000000	    -22.61561807320957100000	     -2.10201074337296000000	    123.13875678974810000000	     93.29519750563051200000	      0.00000000000001066795	     -0.00000000000000535346
      1.35150000000000010000	     -4.28293120436865050000	     -1.59642910136220160000	     -0.28961562923015988000	      0.93237250829826201000	      1.01067362308573630000	     -0.30595494809381230000	      0.14591980903553647000	      8.98884052629161450000	      9.74166263148408260000	    -27.60632039737750500000	     19.06511796223771400000	     -0.00000000000001942123	     -0.00000000000002884774	     38.36853406981545300000	      2.90254314360934720000	      3.80145133649866240000	    -89.55267080742172000000	      3.31195614012277510000	      0.00000000000000435207	     -0.00000000000001104316	     -5.66124666082010730000	      5.73553449931351890000	     15.48091477993138400000	    -13.83196299278828600000	    -16.93943579373974000000	     -2.71314583319821970000	    119.69646631498865000000	     89.94869925533541300000	      0.00000000000000270421	     -0.00000000000001311900	    -33.80985539048565200000	    -22.56102680498619900000	     -2.13957454674220980000	    123.25752126966853000000	     93.16978602040211400000	      0.00000000000001079812	     -0.00000000000000540950
      1.35250000000000000000	     -4.32442111026514910000	     -1.51882694776762680000	     -0.28168383194096164000	      0.93257287790368859000	      1.01135176166477870000	     -0.30605448740281199000	     -0.14169306649940031000	      8.85548389477436260000	      9.74777687411355660000	    -27.30677082469773300000	     18.63863611538698400000	     -0.00000000000001956497	     -0.00000000000002904832	     38.47410273374603000000	      3.00350654343020550000	      3.80640759796926400000	    -89.14640931135474500000	      3.34661792571085750000	      0.00000000000000449769	     -0.00000000000001109686	     -5.57691486320481910000	      5.64914388629015370000	     15.54869216615421500000	    -13.81840604605029700000	    -16.92579713288972700000	     -2.59709859534499140000	    119.92114069628731000000	     90.03675987797395000000	      0.00000000000000273051	     -0.00000000000001327666	    -33.96504765958228200000	    -22.50397966266504900000	     -2.17866965615764660000	    123.37515986379881000000	     93.04696599577403000000	      0.00000000000001092749	     -0.00000000000000546488
      1.35350000000000010000	     -4.36512465678546580000	     -1.44087314322801770000	     -0.27186014453857826000	      0.93277720204158421000	      1.01203517741138380000	     -0.30615845811020759000	     -0.42892005454746229000	      8.72098205283896630000	      9.74902925724178540000	    -27.00683566251826700000	     18.20220599893011100000	     -0.00000000000001968935	     -0.00000000000002922913	     38.57535449944779800000	      3.10578749881768170000	      3.81293267854771050000	    -88.73435245957490700000	      3.38138186301849950000	      0.00000000000000464828	     -0.00000000000001114640	     -5.49296625106490310000	      5.56255367073273630000	     15.61275196100119100000	    -13.80494284816238900000	    -16.91245343959438000000	     -2.47833438787214440000	    120.14405064721957000000	     90.12424417357964000000	      0.00000000000000275651	     -0.00000000000001342338	    -34.12106637426331400000	    -22.44449500524555000000	     -2.21929941268148270000	    123.49165793051078000000	     92.92676140158954500000	      0.00000000000001106758	     -0.00000000000000551981
